<svg width="512" height="512" viewBox="0 0 512 512" fill="none" xmlns="http://www.w3.org/2000/svg">
  <defs>
    <linearGradient id="grad512" x1="256" y1="40" x2="256" y2="472" gradientUnits="userSpaceOnUse">
      <stop offset="0%" stop-color="#14B8A6"/>
      <stop offset="100%" stop-color="#0F766E"/>
    </linearGradient>
    <filter id="shadow512" x="-5%" y="-5%" width="110%" height="110%">
      <feDropShadow dx="0" dy="8" stdDeviation="8" flood-color="#0F766E" flood-opacity="0.2"/>
    </filter>
  </defs>

  <!-- Background circle for maskable icon -->
  <circle cx="256" cy="256" r="256" fill="#F0FDFA"/>

  <!-- Shield centered -->
  <g transform="translate(86, 40)" filter="url(#shadow512)">
    <path d="M170 28L52 85V213C52 310 112 374 170 418C228 374 288 310 288 213V85L170 28Z" fill="url(#grad512)"/>
    <!-- Inner highlight -->
    <path d="M170 48L68 98V208C68 296 122 356 170 396C218 356 272 296 272 208V98L170 48Z" fill="none" stroke="white" stroke-width="2" stroke-opacity="0.2"/>
    <!-- Checkmark -->
    <path d="M105 223L148 266L235 179" stroke="white" stroke-width="24" stroke-linecap="round" stroke-linejoin="round"/>
    <!-- Top accent -->
    <path d="M100 118L240 118" stroke="white" stroke-width="6" stroke-opacity="0.25" stroke-linecap="round"/>
  </g>
</svg>
